<?xml version="1.0" encoding="UTF-8" standalone="no"?>
<!-- Created with Inkscape (http://www.inkscape.org/) -->

<svg
   width="600"
   height="600"
   viewBox="0 0 158.75 158.75"
   version="1.1"
   id="svg1"
   inkscape:version="1.3.2 (091e20e, 2023-11-25, custom)"
   sodipodi:docname="Logo BV-mini.svg"
   inkscape:export-filename="..\..\..\Logo BV-mini.png"
   inkscape:export-xdpi="96"
   inkscape:export-ydpi="96"
   xmlns:inkscape="http://www.inkscape.org/namespaces/inkscape"
   xmlns:sodipodi="http://sodipodi.sourceforge.net/DTD/sodipodi-0.dtd"
   xmlns="http://www.w3.org/2000/svg"
   xmlns:svg="http://www.w3.org/2000/svg">
  <sodipodi:namedview
     id="namedview1"
     pagecolor="#ffffff"
     bordercolor="#999999"
     borderopacity="1"
     inkscape:showpageshadow="2"
     inkscape:pageopacity="0"
     inkscape:pagecheckerboard="true"
     inkscape:deskcolor="#d1d1d1"
     inkscape:document-units="mm"
     showgrid="true"
     inkscape:zoom="0.74029882"
     inkscape:cx="225.58458"
     inkscape:cy="224.90918"
     inkscape:window-width="1920"
     inkscape:window-height="1027"
     inkscape:window-x="-8"
     inkscape:window-y="-8"
     inkscape:window-maximized="1"
     inkscape:current-layer="layer1"
     inkscape:export-bgcolor="#ffffffff">
    <inkscape:grid
       id="grid1"
       units="px"
       originx="0"
       originy="0"
       spacingx="0.26458333"
       spacingy="0.26458333"
       empcolor="#0099e5"
       empopacity="0.30196078"
       color="#0099e5"
       opacity="0.14901961"
       empspacing="5"
       dotted="false"
       gridanglex="30"
       gridanglez="30"
       visible="true" />
  </sodipodi:namedview>
  <defs
     id="defs1" />
  <g
     inkscape:label="Capa 1"
     inkscape:groupmode="layer"
     id="layer1">
    <path
       d="m 47.729941,137.02679 -9.347467,-9.40295 0.13822,-57.511243 0.13822,-57.511248 28.664988,-0.140538 28.664985,-0.140539 9.746203,9.097186 9.74621,9.097187 V 48.82574 67.13683 l -6.51497,5.229589 c -3.58323,2.87627 -6.51498,5.306589 -6.51498,5.400713 0,0.09418 4.03114,3.059103 8.95809,6.588843 l 8.95809,6.417689 v 27.828046 27.82802 H 88.722464 57.077407 Z M 91.59306,105.98261 V 91.052464 H 79.028689 66.464319 l 0.348797,3.337143 c 0.191837,1.835416 0.3488,8.553983 0.3488,14.930143 v 11.59302 H 79.377489 91.59306 Z M 87.24975,52.008959 V 38.482423 l -3.936131,-0.35277 C 81.148747,37.93564 76.567906,37.853712 73.133974,37.947603 L 66.89046,38.118326 66.745407,51.826914 66.600353,65.535501 H 76.925048 87.24974 Z"
       style="display:inline;fill:#2f45b0;fill-opacity:1;stroke-width:0.542914"
       id="path1" />
    <path
       d="m 38.702934,54.965041 c 0.23244,-0.376078 -0.01497,-0.901637 -0.582879,-1.237764 -2.754505,-1.630493 -2.913666,-2.023746 -2.6422,-6.528075 l 0.258765,-4.293588 1.61765,0.355294 1.617648,0.355294 -0.166481,-3.206065 c -0.166168,-3.200069 -0.170098,-3.206686 -2.099804,-3.518164 -2.042986,-0.32981 -5.493263,-2.117654 -5.493263,-2.84651 0,-0.237327 0.475438,-0.431523 1.056523,-0.431523 1.241247,0 1.811753,-1.955259 1.958892,-6.713645 0.08551,-2.765358 0.365416,-3.482324 2.3578,-6.039286 2.332511,-2.993466 2.651976,-4.161657 0.640205,-2.341018 -1.139443,1.031173 -1.142929,1.028345 -0.737751,-0.599346 0.223908,-0.899477 0.873483,-2.469074 1.443504,-3.488021 0.570015,-1.018946 0.89793,-1.99107 0.72869,-2.160316 -0.390352,-0.390346 -1.9059,1.581512 -1.929191,2.510035 -0.0095,0.383693 -0.972514,2.269597 -2.139767,4.190932 -1.167251,1.921334 -2.465446,4.26861 -2.884879,5.216178 -0.436765,0.986719 -1.175332,1.722855 -1.728551,1.722855 -1.23156,0 -1.213551,-0.43139 0.150906,-3.61454 l 1.116862,-2.605532 -1.212751,-1.290904 c -1.650679,-1.757078 -4.022755,-1.708405 -5.212203,0.106874 -0.707709,1.080095 -0.784903,1.685325 -0.339614,2.662626 0.502323,1.102467 0.370772,1.386193 -1.02502,2.210694 -2.210482,1.30577 -3.246015,3.585763 -3.246015,7.146951 0,1.661266 -0.247552,3.173503 -0.550117,3.360482 -1.117471,0.69064 -0.584738,3.468684 0.887214,4.626525 1.124012,0.884151 1.360904,1.435108 1.086723,2.527535 -0.487028,1.940483 1.143306,2.544572 2.464376,0.913116 1.071129,-1.322795 2.7079,-1.09367 2.721642,0.380993 0.0066,0.717045 0.106189,0.749565 0.481442,0.157393 0.296766,-0.468357 0.908545,-0.608286 1.641925,-0.375521 1.008086,0.319948 1.184196,0.838975 1.279954,3.772163 0.06107,1.870647 0.05568,4.267612 -0.01206,5.326578 -0.261279,4.089059 0.04202,4.400955 4.279924,4.400955 2.347155,0 3.962834,-0.250754 4.211834,-0.653634 z m -10.08737,-7.780669 c 0.217984,-0.554223 0.388812,-1.420663 0.37961,-1.925406 -0.01497,-0.818758 -0.07824,-0.812045 -0.587125,0.06221 -0.313722,0.539008 -0.484544,1.405426 -0.379609,1.925406 0.174235,0.863421 0.225169,0.858024 0.587124,-0.06221 z M 26.4103,45.934305 c 0.220625,-0.220623 0.393605,-0.916852 0.384401,-1.547208 -0.01539,-1.058195 -0.06061,-1.070669 -0.589051,-0.162587 -0.615366,1.057392 -0.457961,2.372477 0.204655,1.709859 z"
       style="display:inline;fill:#f5b41f;stroke-width:0.550117"
       id="path1-2" />
  </g>
</svg>
