<?xml version="1.0" encoding="UTF-8" standalone="no"?>
<!-- Created with Inkscape (http://www.inkscape.org/) -->

<svg
   version="1.1"
   id="svg1"
   width="637"
   height="383"
   viewBox="0 0 637 383"
   sodipodi:docname="Logo BV.svg"
   inkscape:version="1.3.2 (091e20e, 2023-11-25, custom)"
   xmlns:inkscape="http://www.inkscape.org/namespaces/inkscape"
   xmlns:sodipodi="http://sodipodi.sourceforge.net/DTD/sodipodi-0.dtd"
   xmlns="http://www.w3.org/2000/svg"
   xmlns:svg="http://www.w3.org/2000/svg">
  <defs
     id="defs1" />
  <sodipodi:namedview
     id="namedview1"
     pagecolor="#ffffff"
     bordercolor="#999999"
     borderopacity="1"
     inkscape:showpageshadow="2"
     inkscape:pageopacity="0"
     inkscape:pagecheckerboard="0"
     inkscape:deskcolor="#d1d1d1"
     inkscape:zoom="0.94348509"
     inkscape:cx="318.5"
     inkscape:cy="318.5"
     inkscape:window-width="1440"
     inkscape:window-height="847"
     inkscape:window-x="1912"
     inkscape:window-y="61"
     inkscape:window-maximized="1"
     inkscape:current-layer="svg1" />
  <g
     id="g260"
     inkscape:label="g260"
     transform="matrix(1.2946246,0,0,1.2946246,-99.674213,-189.6933)">
    <path
       style="display:inline;fill:#bebec0"
       d="M 94.238347,424.73864 77,407.47915 V 300.73958 194 h 53.29507 53.29507 l 15.45493,14.36572 c 11.89799,11.05946 15.60156,13.99387 16.09205,12.75 0.35041,-0.88864 3.28162,-2.44455 6.51378,-3.45758 l 5.87667,-1.84185 5.73622,2.53683 c 3.43483,1.51904 5.73621,3.1607 5.73621,4.09185 0,0.90486 0.8637,1.55503 2.06574,1.55503 1.13616,0 2.82366,0.40563 3.75,0.90141 1.54586,0.82733 1.68426,5.17438 1.68426,52.90298 v 52.00157 l 5,-4.61599 c 2.75,-2.5388 5.33061,-5.08264 5.73469,-5.65299 0.40408,-0.57034 0.74158,-38.04948 0.75,-83.28698 L 258,154 l 3.25,-0.11842 c 1.7875,-0.0651 3.5875,-0.0651 4,0 0.4125,0.0651 0.75,-0.76047 0.75,-1.83466 0,-1.26714 1.29197,-2.56617 3.67861,-3.6987 4.5777,-2.17226 7.04343,-2.38807 8.41417,-0.73643 0.79141,0.95359 1.74336,1.01709 3.73468,0.24914 3.43411,-1.32436 31.66966,-1.35052 35.87043,-0.0332 2.36303,0.741 3.46761,0.67781 4.23102,-0.24204 C 323.0072,146.2864 329,146.6349 329,147.99687 c 0,0.42343 0.9334,1.01396 2.07421,1.31229 1.14082,0.29833 2.3183,1.47581 2.61663,2.61663 0.41406,1.58336 1.34308,2.07421 3.92579,2.07421 2.91605,0 3.38337,0.33556 3.38337,2.42943 0,2.49175 6.75064,17.1519 12.00486,26.07057 1.6201,2.75 3.12552,5.45 3.34539,6 0.2665,0.66667 0.74415,0.66667 1.43294,0 0.70688,-0.68417 0.27412,-2.55596 -1.37022,-5.92654 -2.28911,-4.69221 -2.32095,-5.01767 -0.66938,-6.84262 4.32174,-4.77548 9.22409,-4.6278 11.80105,0.35548 1.28605,2.48694 1.34489,3.34186 0.31543,4.58229 -1.04658,1.26104 -0.9372,1.70872 0.63204,2.58691 4.71467,2.63847 6.50789,5.85352 6.50789,11.668 0,3.54336 0.59318,6.47835 1.59976,7.91544 2.2478,3.20918 1.13451,8.50545 -2.0974,9.97801 -2.07004,0.94317 -2.36791,1.60527 -1.86146,4.13754 0.80377,4.01886 -2.1282,5.39688 -4.70695,2.21225 -1.70964,-2.11131 -3.95094,-2.92196 -3.91708,-1.41676 0.009,0.4125 1.39373,7.275 3.07656,15.25 3.39902,16.10804 4.56014,23.86211 3.4126,22.78964 -0.41804,-0.3907 -1.12976,-2.4157 -1.58159,-4.5 -3.61275,-16.66577 -4.92115,-22.16515 -5.85837,-24.62356 -0.59421,-1.55865 -0.82609,-3.24536 -0.51529,-3.74824 0.3108,-0.50288 -0.18155,-1.92762 -1.0941,-3.16609 -1.81679,-2.46565 -1.82665,-3.20127 0.10393,7.74825 0.19395,1.1 1.28799,6.725 2.43121,12.5 3.22087,16.27036 3.40327,17.62798 2.21681,16.5 -1.02305,-0.97262 -2.07659,-5.35004 -6.24303,-25.93954 -1.10624,-5.46674 -2.11355,-10.04132 -2.23847,-10.16573 -0.12492,-0.12441 -0.36102,4.78505 -0.52467,10.9099 -0.19479,7.29033 -0.7128,11.40005 -1.5,11.90042 -0.66135,0.42038 -3.96682,0.77122 -7.34547,0.77964 -4.66931,0.0116 -6.28863,0.39478 -6.75,1.5971 -0.33385,0.86998 -0.60699,18.05998 -0.60699,38.2 0,28.48083 0.26667,36.35154 1.2,35.41821 0.66,-0.66 3.81,-1.2 7,-1.2 h 5.8 v -23.94098 c 0,-15.23208 0.37192,-24.17085 1.02243,-24.57288 0.81235,-0.50206 26.51397,-0.97198 31.72757,-0.5801 0.96343,0.0724 1.25,5.71074 1.25,24.59396 V 318 h 4.45228 4.45229 l 0.29771,6.25 c 0.22658,4.75657 0.65614,6.25 1.79772,6.25 1.30927,0 1.533,-6.19867 1.75951,-48.75 L 402.01903,233 h 11.37385 c 10.94578,0 11.39595,0.0845 11.96079,2.24445 0.32282,1.23445 0.58836,19.34695 0.59009,40.25 0.002,20.90305 0.0151,38.99339 0.0297,40.20076 0.023,1.90488 0.65476,2.23552 4.77655,2.5 l 4.75,0.30479 1.39665,13.25 c 1.03141,9.78499 1.75057,13.25 2.75,13.25 1.0956,0 1.37592,-4.42809 1.47183,-23.25 0.0652,-12.7875 0.0374,-23.84738 -0.0616,-24.5775 -0.0991,-0.73013 0.74762,-1.57011 1.88152,-1.86663 C 444.87319,294.7999 445,294.04299 445,283 c 0,-10.92573 -0.14295,-11.80412 -2,-12.28975 -1.6219,-0.42414 -2,-1.36401 -2,-4.97157 0,-4.08718 0.44039,-4.86507 5.42106,-9.57558 l 5.42106,-5.12701 3.68487,1.53963 c 2.02668,0.8468 4.49674,2.04666 5.48902,2.66635 1.43391,0.89549 2.99079,0.58984 7.58641,-1.48938 l 5.78224,-2.61609 3.75315,2.97254 C 482.82217,257.81923 487,262.72318 487,264.51163 487,267.27193 485.0032,271 483.52475,271 482.24396,271 482,272.90131 482,282.88337 c 0,10.92143 0.1571,11.92445 1.94075,12.39088 1.82146,0.47633 1.94047,1.51299 1.93623,16.86664 -0.002,8.99751 0.0242,17.37161 0.0593,18.60911 0.0562,1.9822 0.58663,2.25 4.45678,2.25 3.08336,0 4.57397,-0.47156 5,-1.58179 0.33385,-0.86998 0.60699,-27.19498 0.60699,-58.5 L 496,216 h 10.5 10.5 v 2.88337 c 0,2.04236 0.58335,3.03592 2,3.40638 1.93161,0.50513 2,1.36401 2,25.11663 0,15.72908 0.36044,24.59362 1,24.59362 0.63768,0 1,8.33333 1,23 v 23 h 6.5 6.5 v -6.36043 C 536,302.17716 537.04111,296 538.63592,296 539.73255,296 540,292.78589 540,279.60699 540,261.37659 539.74925,262 547.08179,262 H 551 v -11.53138 c 0,-10.10721 0.21613,-11.59895 1.75,-12.07844 0.9625,-0.30088 2.9469,-1.18822 4.40977,-1.97186 2.70478,-1.4489 5.32466,-1.03322 7.59023,1.2043 0.96274,0.95082 1.25,11.44946 1.25,45.68383 0,37.24827 0.24301,45.0309 1.5,48.03931 3.04289,7.28267 1.62292,26.47504 -5.06989,68.52465 -3.71293,23.32759 -4.97201,27.93831 -8.72784,31.9611 -2.71228,2.90507 -9.40682,6.90965 -13.868,8.29566 -2.23756,0.69516 -73.23386,1.17323 -215.84592,1.45342 l -212.51166,0.41754 z M 137,342.5 c 0,-3.33333 -0.16667,-3.5 -3.5,-3.5 -3.33333,0 -3.5,0.16667 -3.5,3.5 0,3.33333 0.16667,3.5 3.5,3.5 3.33333,0 3.5,-0.16667 3.5,-3.5 z m 217.81184,1.23852 C 355.04294,342.53852 354.50442,342 353.07332,342 351.64223,342 351,342.64223 351,344.07332 c 0,2.56265 3.30983,2.27193 3.81184,-0.3348 z M 310.98272,258.75 l -0.0173,-59.25 -2.45534,-2.3286 c -3.20057,-3.03537 -5.7102,-2.45613 -6.86931,1.58547 -1.19446,4.16482 -2.25682,4.09788 -4.07635,-0.25687 -0.99736,-2.38702 -2.11461,-3.5 -3.51342,-3.5 -1.12807,0 -2.05103,0.62252 -2.05103,1.38337 0,0.76085 -0.9,1.61872 -2,1.90638 -1.97178,0.51563 -2,1.36401 -2,60.11663 V 318 H 299.5 311 Z M 137,272.96482 c 0,-17.81142 0.11251,-18.97623 1.75,-18.11817 2.51011,1.31532 6.25,-0.36878 6.25,-2.81443 0,-1.65587 0.64817,-2.03222 3.5,-2.03222 3.15959,0 3.5,-0.27003 3.5,-2.77643 0,-2.63607 0.20221,-2.75714 4,-2.39496 3.16367,0.3017 4,0.0459 4,-1.22357 C 160,242.20299 158.10294,242 145,242 h -15 v 25 25 h 3.5 3.5 z M 346.79585,229.6259 c 0.37237,-8.35709 -0.46651,-10.24531 -3.58215,-8.06303 -1.94006,1.35888 -2.2137,2.45001 -2.2137,8.82717 0,4.00214 0.30306,7.57969 0.67346,7.95009 0.37041,0.3704 1.60791,0.0552 2.75,-0.70056 1.69421,-1.12104 2.13101,-2.59652 2.37239,-8.01367 z m 4.84898,-23.62734 2.14483,-1.3483 -2.13297,-1.72717 c -1.79009,-1.44953 -2.19201,-3.02736 -2.50027,-9.81534 -0.35268,-7.7663 -0.52065,-8.25768 -4.22085,-12.34796 l -3.85354,-4.25979 -0.041,15.58333 c -0.0226,8.57084 0.19631,15.82066 0.48637,16.11072 0.81278,0.81278 7.71441,-0.68488 10.11745,-2.19549 z m -7.90531,-34.31361 C 342.45782,168.92476 341,168.11926 341,170.17126 c 0,1.24418 3.09366,5.06841 3.65005,4.51202 0.18094,-0.18094 -0.2288,-1.53019 -0.91053,-2.99833 z"
       id="path267"
       sodipodi:nodetypes="ccccccssscssssscssscsssssssssssssssssssssssssscsssssssssssssssssscsssscccssscsscsscssssssssscssscssssscsssscccssssscccsssscssssssssssccsssssssssccsssssssccccsssssssscccccsssssssccsssccsscssss" />
    <path
       style="display:inline;fill:#f5b41f"
       d="M 94.208028,423.68061 76.990823,406.36121 77.245411,300.43061 77.5,194.5 l 52.79836,-0.25887 52.79836,-0.25886 17.95164,16.75621 L 219,227.49469 v 33.72741 33.7274 l -12,9.63244 c -6.6,5.29784 -12,9.77428 -12,9.94764 0,0.17336 7.425,5.63458 16.5,12.13604 L 228,338.48646 V 389.74323 441 H 169.71262 111.42523 Z M 175,366.5 V 339 h -23.14246 -23.14245 l 0.64245,6.14669 c 0.35335,3.38068 0.64246,15.75568 0.64246,27.5 V 394 h 22.5 22.5 z m -8,-99.41468 v -24.91468 l -7.25,-0.64977 C 155.7625,241.1635 147.325,241.01261 141,241.18555 L 129.5,241.5 129.23283,266.75 128.96566,292 H 147.98283 167 Z m 74.0005,121.16468 5e-4,-52.75 9.44314,-8.76671 9.44314,-8.76672 26.30636,0.26672 L 312.5,318.5 v 39 39 l -6.83868,0.29771 c -5.97606,0.26016 -6.75334,0.51244 -6.16215,2 0.58839,1.48051 10.20337,27.78051 14.05772,38.45229 l 1.35439,3.75 h -13.23594 -13.23593 l -5.88102,-17.17037 c -9.34983,-27.29797 -8.87519,-26.28236 -12.45118,-26.64299 L 267,396.87328 V 418.93664 441 H 254 241 Z M 284.25,373.07963 C 285.83797,373.00737 286,371.5649 286,357.5 V 342 h -9.5 -9.5 v 15.33333 c 0,8.43334 0.18726,15.52084 0.41614,15.75 0.3427,0.34314 9.25467,0.34118 16.83386,-0.004 z M 324,389.12261 V 337.24523 L 334.02539,327.62261 344.05079,318 H 371.02539 398 V 379.5 441 H 385 372 V 420.96617 400.93234 L 361.25,401.21617 350.5,401.5 350.22886,421.25 349.95772,441 H 336.97886 324 Z M 372,359.5 V 342 h -11 -11 v 17.5 17.5 h 11 11 z m 51.6188,75.75 c -0.7225,-6.32757 -8.01365,-60.53697 -12.66091,-94.13345 C 409.33105,329.35565 408,319.34315 408,318.86655 408,318.38995 414.04743,318 421.43873,318 h 13.43872 l 0.57945,4.25 c 0.62037,4.55019 0.76025,5.78885 6.0628,53.68885 1.91417,17.29137 3.53198,31.69137 3.59513,32 0.10116,0.49433 2.48585,-20.34794 8.48837,-74.18885 L 455.35911,318 h 13.32045 c 9.99131,0 13.31968,0.31241 13.31739,1.25 -0.003,1.37154 -14.59202,111.949 -15.56794,118 L 465.8242,441 h -20.77442 -20.77442 z m 89.06013,4.20728 c -6.42161,-2.35583 -11.68806,-7.29718 -14.80957,-13.89541 -2.54307,-5.37549 -2.86787,-7.16023 -2.86857,-15.76218 -6.3e-4,-7.76379 -0.31341,-9.87526 -1.56676,-10.57667 -1.13876,-0.63728 -1.47977,-2.08308 -1.25,-5.29969 L 492.5,389.5 504.75,389.21922 517,388.93844 v 4.94745 c 0,2.72109 -0.42353,5.09744 -0.94118,5.28078 -2.59703,0.91977 -3.06899,12.64267 -0.65718,16.32356 4.75982,7.2644 18.41383,6.98242 23.73711,-0.49023 1.36935,-1.92225 2.75841,-10.44727 6.0106,-36.88861 l 4.22969,-34.38861 -2.74529,-2.36139 C 544.04333,339.1332 543.13143,339 530.46729,339 c -13.25396,0 -13.44183,0.0315 -15.07847,2.52934 -1.29621,1.97827 -1.51115,3.77276 -0.98652,8.23653 0.36893,3.13896 1.10433,6.14076 1.63424,6.67067 C 516.56644,356.96644 517,359.56 517,362.2 V 367 H 504.5 492 v -4.89301 c 0,-3.42685 0.44947,-5.06549 1.5,-5.46862 1.21075,-0.4646 1.5,-2.75231 1.5,-11.86359 0,-6.20839 0.44248,-12.83084 0.9833,-14.71654 1.29994,-4.53265 6.56105,-9.83695 10.97234,-11.06244 1.9494,-0.54156 12.18998,-0.98716 22.75685,-0.99022 16.76494,-0.005 19.89264,0.2489 24.55148,1.99199 9.57815,3.58365 14.73703,11.18825 14.73482,21.72031 -0.002,11.07316 -8.0117,69.75452 -11.16214,81.78037 -1.48507,5.66878 -8.8138,12.64906 -16.12416,15.35751 -6.93315,2.56869 -22.77662,2.89694 -29.03356,0.60152 z M 507.7277,405.2702 c -2.07477,-0.21647 -5.22477,-0.21284 -7,0.008 -1.77524,0.22091 -0.0777,0.39803 3.7723,0.39359 3.85,-0.004 5.30246,-0.18518 3.2277,-0.40166 z m 0.5223,-55.9936 c -1.7875,-0.22182 -4.7125,-0.22182 -6.5,0 -1.7875,0.22183 -0.325,0.40333 3.25,0.40333 3.575,0 5.0375,-0.1815 3.25,-0.40333 z M 492,378 v -9 h 12.5 12.5 v 9 9 H 504.5 492 Z M 341.38372,241.81186 c -0.42253,-0.68367 0.0273,-1.63899 1.05955,-2.25 5.00712,-2.96393 5.29644,-3.67876 4.80297,-11.8667 l -0.47038,-7.80484 -2.94055,0.64585 -2.94055,0.64585 0.30262,-5.82798 c 0.30205,-5.81704 0.30922,-5.82906 3.81701,-6.3953 C 348.72811,208.35925 355,205.10929 355,203.78439 355,203.35298 354.13575,203 353.07946,203 c -2.25633,0 -3.29339,-3.55427 -3.56086,-12.20402 -0.15544,-5.02685 -0.66425,-6.33014 -4.28599,-10.97816 -4.24002,-5.44152 -4.82074,-7.56503 -1.16376,-4.25551 2.07127,1.87447 2.07761,1.86932 1.34108,-1.08946 -0.40702,-1.63507 -1.58781,-4.4883 -2.62399,-6.34051 -1.03617,-1.85222 -1.63225,-3.61937 -1.32461,-3.927 0.70958,-0.70959 3.46453,2.87484 3.50687,4.56273 0.0175,0.69744 1.76783,4.12564 3.88965,7.61823 2.12182,3.49258 4.48167,7.75945 5.24411,9.48193 0.79395,1.79365 2.13651,3.13177 3.14215,3.13177 2.23872,0 2.20598,-0.78417 -0.27432,-6.57048 l -2.03022,-4.7363 2.20453,-2.34661 c 3.00059,-3.19398 7.31253,-3.10553 9.4747,0.19435 1.28647,1.96341 1.42679,3.06356 0.61735,4.8401 -0.91312,2.00407 -0.67399,2.5198 1.86327,4.0186 4.0182,2.37361 5.90058,6.51816 5.90058,12.99166 0,3.01986 0.45,5.76876 1,6.10868 2.03133,1.25543 1.06293,6.30534 -1.61277,8.41004 -2.04322,1.6072 -2.47384,2.60875 -1.97544,4.59454 0.88532,3.52739 -2.07829,4.62549 -4.47972,1.65986 -1.94709,-2.40456 -4.9224,-1.98806 -4.94738,0.69255 -0.0122,1.30345 -0.19302,1.36255 -0.87516,0.286 -0.53946,-0.85139 -1.65155,-1.10573 -2.98468,-0.68261 -1.83249,0.5816 -2.15262,1.52506 -2.32669,6.85701 -0.11101,3.40043 -0.1012,7.75761 0.0218,9.68261 0.47495,7.43306 -0.0764,8 -7.78001,8 -4.26664,0 -7.20361,-0.45578 -7.65624,-1.18814 z m 18.33674,-14.14365 c -0.39625,-1.00748 -0.70678,-2.58248 -0.69005,-3.5 0.0271,-1.48832 0.14221,-1.47612 1.06727,0.11321 0.57028,0.97978 0.8808,2.55478 0.69005,3.5 -0.31674,1.56951 -0.40931,1.55969 -1.06727,-0.11321 z m 4.00871,-2.27238 c -0.40105,-0.40104 -0.71549,-1.66666 -0.69876,-2.8125 0.0281,-1.92359 0.11018,-1.94626 1.07077,-0.29565 1.11861,1.92211 0.83248,4.31265 -0.37201,3.10815 z"
       id="path264"
       sodipodi:nodetypes="ccccccccccsssccccccccccssccccccssccccccccccccccssscccsscccccccscccssccccccccccccccccccccccccccccccsssscsssscscscccsssssscccssssscsssssscccssssscscssssscsssssscccccccccscscccssssssssssssssscssssssssssssssssssssssssss" />
    <path
       style="display:inline;fill:#2f45b0;fill-opacity:1"
       d="M 94.208028,423.68061 76.990823,406.36121 77.245411,300.43061 77.5,194.5 l 52.79836,-0.25887 52.79836,-0.25886 17.95164,16.75621 L 219,227.49469 v 33.72741 33.7274 l -12,9.63244 c -6.6,5.29784 -12,9.77428 -12,9.94764 0,0.17336 7.425,5.63458 16.5,12.13604 L 228,338.48646 V 389.74323 441 H 169.71262 111.42523 Z M 175,366.5 V 339 h -23.14246 -23.14245 l 0.64245,6.14669 c 0.35335,3.38068 0.64246,15.75568 0.64246,27.5 V 394 h 22.5 22.5 z m -8,-99.41468 v -24.91468 l -7.25,-0.64977 C 155.7625,241.1635 147.325,241.01261 141,241.18555 L 129.5,241.5 129.23283,266.75 128.96566,292 H 147.98283 167 Z m 74.0005,121.16468 5e-4,-52.75 9.44314,-8.76671 9.44314,-8.76672 26.30636,0.26672 L 312.5,318.5 v 39 39 l -6.83868,0.29771 c -5.97606,0.26016 -6.75334,0.51244 -6.16215,2 0.58839,1.48051 10.20337,27.78051 14.05772,38.45229 l 1.35439,3.75 h -13.23594 -13.23593 l -5.88102,-17.17037 c -9.34983,-27.29797 -8.87519,-26.28236 -12.45118,-26.64299 L 267,396.87328 V 418.93664 441 H 254 241 Z M 284.25,373.07963 C 285.83797,373.00737 286,371.5649 286,357.5 V 342 h -9.5 -9.5 v 15.33333 c 0,8.43334 0.18726,15.52084 0.41614,15.75 0.3427,0.34314 9.25467,0.34118 16.83386,-0.004 z M 324,389.12261 V 337.24523 L 334.02539,327.62261 344.05079,318 H 371.02539 398 V 379.5 441 H 385 372 V 420.96617 400.93234 L 361.25,401.21617 350.5,401.5 350.22886,421.25 349.95772,441 H 336.97886 324 Z M 372,359.5 V 342 h -11 -11 v 17.5 17.5 h 11 11 z m 51.6188,75.75 c -0.7225,-6.32757 -8.01365,-60.53697 -12.66091,-94.13345 C 409.33105,329.35565 408,319.34315 408,318.86655 408,318.38995 414.04743,318 421.43873,318 h 13.43872 l 0.57945,4.25 c 0.62037,4.55019 0.76025,5.78885 6.0628,53.68885 1.91417,17.29137 3.53198,31.69137 3.59513,32 0.10116,0.49433 2.48585,-20.34794 8.48837,-74.18885 L 455.35911,318 h 13.32045 c 9.99131,0 13.31968,0.31241 13.31739,1.25 -0.003,1.37154 -14.59202,111.949 -15.56794,118 L 465.8242,441 h -20.77442 -20.77442 z m 89.06013,4.20728 C 501.93915,435.51729 495.00219,424.93917 495.00079,412.5 L 495,405.5 h 9.25 9.25 l 0.15164,3.77541 c 0.16927,4.21429 2.31509,8.10123 5.37699,9.73991 3.90182,2.08819 11.2247,2.23243 14.90029,0.2935 6.4943,-3.42587 6.64084,-3.96391 11.22043,-41.19743 l 4.22969,-34.38861 -2.74529,-2.36139 C 544.04407,339.13384 543.12971,339 530.50094,339 c -12.70068,0 -13.4674,0.11403 -14.94424,2.22251 -0.85618,1.22237 -1.5567,3.58487 -1.5567,5.25 V 349.5 h -9.5 -9.5 v -8.0066 c 0,-4.40363 0.44248,-9.54946 0.9833,-11.43516 1.29994,-4.53265 6.56105,-9.83695 10.97234,-11.06244 1.9494,-0.54156 12.18998,-0.98716 22.75685,-0.99022 16.76494,-0.005 19.89264,0.2489 24.55148,1.99199 9.57815,3.58365 14.73703,11.18825 14.73482,21.72031 -0.002,11.07316 -8.0117,69.75452 -11.16214,81.78037 -1.48507,5.66878 -8.8138,12.64906 -16.12416,15.35751 -6.93315,2.56869 -22.77662,2.89694 -29.03356,0.60152 z"
       id="path263"
       sodipodi:nodetypes="ccccccccccsssccccccccccssccccccssccccccccccccccssscccsscccccccscccssccccccccccccccccccccccccccccccsssscsssscscscccssscccsssscsssscccssscscsss" />
  </g>
</svg>
